<svg xmlns="http://www.w3.org/2000/svg" width="30" height="30">
    <path fill-rule="evenodd" fill="#D27474" d="M14.999 29.994C6.73 29.994.002 23.267.002 14.999.002 6.73 6.73.003 14.999.003c8.268 0 14.996 6.727 14.996 14.996 0 8.268-6.728 14.995-14.996 14.995zm8.528-16.745V9.767a3.3 3.3 0 0 0-3.297-3.296H9.766A3.299 3.299 0 0 0 6.47 9.767v10.465a3.299 3.299 0 0 0 3.296 3.296h10.465a3.3 3.3 0 0 0 3.296-3.296v-6.983zm-3.298 8.616H9.766a1.635 1.635 0 0 1-1.635-1.633v-6.983h2.546a4.63 4.63 0 0 0-.343 1.75 4.67 4.67 0 0 0 4.665 4.664 4.67 4.67 0 0 0 4.664-4.664 4.63 4.63 0 0 0-.345-1.75h2.546v6.983c0 .902-.732 1.633-1.635 1.633zM18.661 8.444l2.516-.008.377-.001v2.891l-2.882.01-.011-2.892zM14.998 18a3.005 3.005 0 0 1-3.002-3.002 2.992 2.992 0 0 1 .568-1.75 3 3 0 0 1 2.435-1.251c1.001 0 1.888.496 2.434 1.252.355.493.568 1.096.568 1.75A3.006 3.006 0 0 1 14.998 18z"/>
</svg>
