<svg
        xmlns="http://www.w3.org/2000/svg"
        xmlns:xlink="http://www.w3.org/1999/xlink"
        width="30px" height="30px">
    <path fill-rule="evenodd"  fill="rgb(210, 116, 116)"
          d="M14.999,0.003 C6.730,0.003 0.003,6.730 0.003,14.999 C0.003,23.267 6.730,29.995 14.999,29.995 C23.267,29.995 29.995,23.267 29.995,14.999 C29.995,6.730 23.267,0.003 14.999,0.003 ZM18.728,15.527 L16.289,15.527 C16.289,19.425 16.289,24.224 16.289,24.224 L12.673,24.224 C12.673,24.224 12.673,19.471 12.673,15.527 L10.954,15.527 L10.954,12.453 L12.673,12.453 L12.673,10.466 C12.673,9.042 13.350,6.817 16.322,6.817 L18.999,6.827 L18.999,9.811 C18.999,9.811 17.371,9.811 17.055,9.811 C16.738,9.811 16.289,9.969 16.289,10.648 L16.289,12.454 L19.043,12.454 L18.728,15.527 Z"/>
</svg>