<svg
        xmlns="http://www.w3.org/2000/svg"
        xmlns:xlink="http://www.w3.org/1999/xlink"
        width="30px" height="30px">
    <path fill-rule="evenodd"  fill="rgb(210, 116, 116)"
          d="M15.000,29.699 C6.881,29.699 0.300,23.118 0.300,15.000 C0.300,6.882 6.881,0.300 15.000,0.300 C23.118,0.300 29.699,6.882 29.699,15.000 C29.699,23.118 23.118,29.699 15.000,29.699 ZM15.020,4.770 C12.163,4.763 9.842,7.072 9.826,9.936 C9.809,12.770 12.129,15.116 14.959,15.125 C17.817,15.135 20.153,12.843 20.167,10.015 C20.182,7.120 17.884,4.778 15.020,4.770 ZM20.901,15.656 C20.608,15.178 20.098,14.977 19.552,15.118 C19.271,15.189 19.028,15.332 18.801,15.505 C16.511,17.046 13.376,17.003 11.095,15.435 C10.983,15.358 10.866,15.285 10.744,15.228 C10.111,14.929 9.502,15.068 9.139,15.588 C8.715,16.195 8.769,16.785 9.305,17.299 C9.444,17.433 9.600,17.548 9.753,17.667 C10.977,18.624 12.407,19.015 13.992,19.180 C13.880,19.300 13.809,19.382 13.732,19.460 C12.569,20.626 11.406,21.793 10.240,22.957 C9.999,23.197 9.826,23.466 9.809,23.817 C9.785,24.336 10.106,24.853 10.613,25.098 C11.089,25.330 11.577,25.256 11.988,24.852 C12.902,23.950 13.810,23.044 14.705,22.123 C14.929,21.893 15.050,21.842 15.304,22.107 C16.175,23.019 17.081,23.897 17.970,24.792 C18.201,25.025 18.463,25.192 18.798,25.215 C19.327,25.251 19.866,24.913 20.107,24.399 C20.327,23.929 20.243,23.427 19.843,23.022 C18.669,21.835 17.486,20.657 16.308,19.473 C16.226,19.391 16.165,19.321 16.034,19.178 C16.901,19.074 17.778,18.918 18.578,18.608 C19.425,18.280 20.186,17.809 20.820,17.159 C21.233,16.735 21.237,16.202 20.901,15.656 ZM15.013,12.483 C13.605,12.488 12.475,11.376 12.464,9.974 C12.453,8.555 13.584,7.414 15.000,7.415 C16.404,7.417 17.525,8.537 17.530,9.944 C17.535,11.350 16.417,12.478 15.013,12.483 Z"/>
</svg>