<svg
        xmlns="http://www.w3.org/2000/svg"
        xmlns:xlink="http://www.w3.org/1999/xlink"
        width="30px" height="30px">
    <path fill-rule="evenodd"  fill="rgb(210, 116, 116)"
          d="M14.999,0.003 C6.730,0.003 0.003,6.730 0.003,14.999 C0.003,23.267 6.730,29.994 14.999,29.994 C23.267,29.994 29.995,23.267 29.995,14.999 C29.995,6.730 23.267,0.003 14.999,0.003 ZM21.688,11.566 C21.695,11.715 21.699,11.865 21.699,12.015 C21.699,16.576 18.227,21.834 11.878,21.834 C9.928,21.834 8.114,21.264 6.587,20.284 C6.857,20.316 7.131,20.332 7.410,20.332 C9.028,20.332 10.515,19.780 11.697,18.855 C10.187,18.827 8.912,17.829 8.473,16.457 C8.683,16.498 8.899,16.520 9.121,16.520 C9.436,16.520 9.742,16.477 10.031,16.399 C8.452,16.082 7.262,14.687 7.262,13.015 C7.262,13.000 7.262,12.985 7.263,12.972 C7.728,13.229 8.260,13.385 8.826,13.403 C7.901,12.785 7.291,11.728 7.291,10.530 C7.291,9.897 7.461,9.304 7.758,8.795 C9.460,10.883 12.004,12.257 14.872,12.402 C14.813,12.149 14.783,11.886 14.783,11.615 C14.783,9.709 16.328,8.163 18.234,8.163 C19.227,8.163 20.124,8.582 20.753,9.253 C21.541,9.098 22.278,8.812 22.946,8.415 C22.688,9.222 22.141,9.897 21.428,10.325 C22.126,10.242 22.792,10.057 23.410,9.782 C22.948,10.473 22.362,11.081 21.688,11.566 Z"/>
</svg>