<svg
        xmlns="http://www.w3.org/2000/svg"
        xmlns:xlink="http://www.w3.org/1999/xlink"
        width="30px" height="30px">
    <path fill-rule="evenodd"  fill="rgb(210, 116, 116)"
          d="M15.000,0.001 C6.717,0.001 0.001,6.716 0.001,15.000 C0.001,23.283 6.717,29.998 15.000,29.998 C23.282,29.998 29.997,23.283 29.997,15.000 C29.997,6.716 23.282,0.001 15.000,0.001 ZM22.607,16.622 C23.306,17.304 24.046,17.947 24.674,18.700 C24.952,19.034 25.214,19.379 25.413,19.766 C25.698,20.318 25.441,20.925 24.946,20.957 L21.873,20.957 C21.080,21.022 20.448,20.702 19.916,20.160 C19.491,19.728 19.097,19.266 18.687,18.819 C18.520,18.635 18.344,18.462 18.134,18.326 C17.715,18.054 17.351,18.137 17.111,18.575 C16.867,19.020 16.811,19.513 16.788,20.009 C16.754,20.734 16.536,20.923 15.808,20.957 C14.255,21.030 12.782,20.794 11.412,20.011 C10.203,19.320 9.268,18.345 8.453,17.241 C6.865,15.089 5.650,12.727 4.558,10.298 C4.312,9.751 4.492,9.458 5.096,9.447 C6.099,9.428 7.101,9.430 8.104,9.446 C8.512,9.452 8.782,9.686 8.939,10.071 C9.481,11.404 10.145,12.673 10.978,13.849 C11.200,14.163 11.426,14.475 11.749,14.696 C12.105,14.941 12.376,14.860 12.544,14.462 C12.651,14.210 12.698,13.940 12.721,13.669 C12.801,12.742 12.810,11.816 12.672,10.892 C12.587,10.314 12.261,9.941 11.685,9.832 C11.392,9.777 11.435,9.668 11.578,9.500 C11.825,9.210 12.058,9.031 12.521,9.031 L15.993,9.031 C16.540,9.138 16.663,9.384 16.737,9.935 L16.740,13.793 C16.733,14.006 16.846,14.638 17.230,14.778 C17.537,14.879 17.739,14.633 17.923,14.438 C18.755,13.555 19.348,12.512 19.879,11.433 C20.114,10.957 20.316,10.465 20.513,9.971 C20.658,9.606 20.886,9.427 21.297,9.433 L24.641,9.437 C24.739,9.437 24.839,9.438 24.937,9.455 C25.500,9.551 25.654,9.794 25.480,10.343 C25.206,11.207 24.672,11.926 24.151,12.647 C23.592,13.419 22.997,14.164 22.444,14.940 C21.936,15.649 21.977,16.006 22.607,16.622 Z"/>
</svg>