<svg
        xmlns="http://www.w3.org/2000/svg"
        xmlns:xlink="http://www.w3.org/1999/xlink"
        width="30px" height="30px">
    <path fill-rule="evenodd"  fill="rgb(210, 116, 116)"
          d="M14.999,29.994 C6.730,29.994 0.002,23.267 0.002,14.999 C0.002,6.730 6.730,0.003 14.999,0.003 C23.267,0.003 29.995,6.730 29.995,14.999 C29.995,23.267 23.267,29.994 14.999,29.994 ZM23.527,13.249 L23.527,9.767 C23.527,7.949 22.048,6.471 20.230,6.471 L9.766,6.471 C7.948,6.471 6.470,7.949 6.470,9.767 L6.470,13.249 L6.470,20.232 C6.470,22.050 7.948,23.528 9.766,23.528 L20.231,23.528 C22.048,23.528 23.527,22.050 23.527,20.232 L23.527,13.249 ZM20.229,21.865 L9.766,21.865 C8.864,21.865 8.131,21.134 8.131,20.232 L8.131,13.249 L10.677,13.249 C10.457,13.789 10.334,14.380 10.334,14.999 C10.334,17.570 12.426,19.663 14.999,19.663 C17.571,19.663 19.663,17.570 19.663,14.999 C19.663,14.380 19.538,13.789 19.318,13.249 L21.864,13.249 L21.864,20.232 C21.864,21.134 21.132,21.865 20.229,21.865 ZM18.661,8.444 L21.177,8.436 L21.554,8.435 L21.554,8.810 L21.554,11.326 L18.672,11.336 L18.661,8.444 ZM14.998,18.000 C13.343,18.000 11.995,16.653 11.996,14.998 C11.997,14.344 12.209,13.741 12.564,13.248 C13.110,12.492 13.996,11.997 14.999,11.997 C16.000,11.997 16.887,12.493 17.433,13.249 C17.788,13.742 18.001,14.345 18.001,14.999 C18.001,16.654 16.652,18.000 14.998,18.000 Z"/>
</svg>